<svg xmlns="http://www.w3.org/2000/svg" viewBox="0 0 283.22 283.22"><defs><style>.cls-1{fill:#1f0e33;}.cls-2{fill:#240a3b;}.cls-3{fill:#362360;}.cls-4{fill:#453487;}.cls-5{fill:#fff;}</style></defs><title>BooleanLogo</title><g id="Layer_1" data-name="Layer 1"><path class="cls-1" d="M331.72,408v-19.6h-9.38v57.68a127.7,127.7,0,1,1,9.87-49.29C332.22,400.6,332.05,404.3,331.72,408Z" transform="translate(-75.74 -255.19)"/><path class="cls-2" d="M331.72,408v-19.6h-9.38v57.68a127.7,127.7,0,1,1,9.87-49.29C332.22,400.6,332.05,404.3,331.72,408Z" transform="translate(-75.74 -255.19)"/><path class="cls-2" d="M331.72,408v-19.6h-9.38v57.68a127.7,127.7,0,1,1,9.87-49.29C332.22,400.6,332.05,404.3,331.72,408Z" transform="translate(-75.74 -255.19)"/><path class="cls-3" d="M331.72,408v-19.6h-9.38v57.68a127.7,127.7,0,1,1,9.87-49.29C332.22,400.6,332.05,404.3,331.72,408Z" transform="translate(-75.74 -255.19)"/><circle class="cls-4" cx="141.61" cy="141.61" r="141.61"/><path class="cls-5" d="M132.09,456.71H147v9.8H115.86V327.08H147v9.8H132.09Z" transform="translate(-75.74 -255.19)"/><path class="cls-5" d="M302.6,456.71H287.75v9.8h31.09V327.08H287.75v9.8H302.6Z" transform="translate(-75.74 -255.19)"/><path class="cls-5" d="M169.36,354.34h14c11.22,0,17.72,4.58,21.16,8.35,4.57,5,6.86,11.78,6.86,19.68s-2.29,14.76-6.86,19.67c-3.44,3.87-10,8.49-21.16,8.49H171.44v28.72h-13.3V354.34Zm30.08,28c0-3.3-.66-8.12-3.77-11.55-2.75-3-6.87-4.58-12.35-4.58H171.44V398.5h11.88q8.22,0,12.35-4.46C198.76,390.6,199.44,385.8,199.44,382.37Z" transform="translate(-75.74 -255.19)"/><path class="cls-5" d="M276.54,414.06A22.06,22.06,0,0,1,266,433.62c-5.84,3.66-13.73,5.63-23.33,5.63H223.92V354.34h18.77c9.37,0,16.24,1.72,21,5.27a18,18,0,0,1,5.83,7.32,22,22,0,0,1,1.72,8.92c0,4.58-1.49,10.18-6.63,15.56a32.07,32.07,0,0,1,3.88,3.09,27.48,27.48,0,0,1,5.84,8.35A28.17,28.17,0,0,1,276.54,414.06Zm-39.35-47.82V392a50.13,50.13,0,0,0,8.69-2.75,29.81,29.81,0,0,0,9.85-5.94,10,10,0,0,0,3.55-7.44c0-4.12-1.49-5.72-2.75-6.64-3.21-2.41-9.38-3-13.83-3Zm27.46,47.82a14.24,14.24,0,0,0-4.47-10.85,20.72,20.72,0,0,0-6.52-4.24c-1.14.46-2.28,1-3.54,1.49a79.27,79.27,0,0,1-12.93,3.89v22.88h5.5c7.2,0,13-1.26,16.81-3.66A10.44,10.44,0,0,0,264.65,414.06Z" transform="translate(-75.74 -255.19)"/></g></svg>