<svg id="Layer_1" data-name="Layer 1" xmlns="http://www.w3.org/2000/svg" viewBox="0 0 468.09 283.22"><defs><style>.cls-1{fill:#1f0e33;}.cls-2{fill:#240a3b;}.cls-3{fill:#362360;}.cls-4{fill:#453487;}.cls-5{fill:#fff;}</style></defs><title>logo</title><g id="Layer_1-2" data-name="Layer 1-2"><path class="cls-1" d="M331.72,408v-19.6h-9.38v57.68a127.7,127.7,0,1,1,9.87-49.29C332.22,400.6,332.05,404.3,331.72,408Z" transform="translate(-72.96 -255.19)"/><path class="cls-2" d="M331.72,408v-19.6h-9.38v57.68a127.7,127.7,0,1,1,9.87-49.29C332.22,400.6,332.05,404.3,331.72,408Z" transform="translate(-72.96 -255.19)"/><path class="cls-2" d="M331.72,408v-19.6h-9.38v57.68a127.7,127.7,0,1,1,9.87-49.29C332.22,400.6,332.05,404.3,331.72,408Z" transform="translate(-72.96 -255.19)"/><path class="cls-3" d="M331.72,408v-19.6h-9.38v57.68a127.7,127.7,0,1,1,9.87-49.29C332.22,400.6,332.05,404.3,331.72,408Z" transform="translate(-72.96 -255.19)"/><circle class="cls-4" cx="141.61" cy="141.61" r="141.61"/><path class="cls-5" d="M253.64,372.24a11.89,11.89,0,0,1-4.14,9.49,13.75,13.75,0,0,1-8.9,3,17.8,17.8,0,0,1-2.31-.15v-5.88a9,9,0,0,0,2.31.29,8.32,8.32,0,0,0,5.24-1.63,6.37,6.37,0,0,0,2-5.09V348.05h5.77Z" transform="translate(-72.96 -255.19)"/><path class="cls-5" d="M152.66,348.05h6c4.85,0,7.65,2,9.14,3.6a13.67,13.67,0,0,1,0,17c-1.49,1.67-4.3,3.66-9.14,3.66h-5.12v12.4h-5.74V348.05Zm13,12.09a7.5,7.5,0,0,0-1.63-5,6.93,6.93,0,0,0-5.34-2h-5.12v13.93h5.12a7,7,0,0,0,5.34-1.93A7.6,7.6,0,0,0,165.65,360.14Z" transform="translate(-72.96 -255.19)"/><path class="cls-5" d="M198.94,384.69h-6.47l-9.23-12.39H179v12.4h-5.73V348.05h10.87c4.84,0,7.65,2,9.13,3.65a13.56,13.56,0,0,1,0,16.94,10.13,10.13,0,0,1-4.24,2.81Zm-14.76-17.53a6.72,6.72,0,0,0,5.28-2,8.51,8.51,0,0,0,0-10c-1.14-1.29-2.91-1.93-5.28-1.93h-5.13v13.93Z" transform="translate(-72.96 -255.19)"/><path class="cls-5" d="M210.48,383.26a18.3,18.3,0,0,1-11.21-16.89,18.7,18.7,0,0,1,1.42-7.16,19.32,19.32,0,0,1,3.95-5.83,18,18,0,0,1,5.84-3.9,18.33,18.33,0,0,1,7.12-1.43,18.71,18.71,0,0,1,7.16,1.43,18,18,0,0,1,9.71,9.71,18.77,18.77,0,0,1,1.42,7.16,18.24,18.24,0,0,1-5.33,13,19.28,19.28,0,0,1-5.82,3.95,18.89,18.89,0,0,1-7.16,1.42A18.4,18.4,0,0,1,210.48,383.26Zm-1.79-25.77a12.51,12.51,0,1,0,8.89-3.71A12.51,12.51,0,0,0,208.69,357.49Z" transform="translate(-72.96 -255.19)"/><path class="cls-5" d="M264.43,363h13.39v5.19H264.43V379.5h16.24v5.19h-22V348.05h22v5.12H264.43Z" transform="translate(-72.96 -255.19)"/><path class="cls-5" d="M310.42,381.68a22.22,22.22,0,0,1-3,1.58,18.88,18.88,0,0,1-7.15,1.42,18.37,18.37,0,0,1-7.13-1.42,18.77,18.77,0,0,1-9.76-9.78,18.55,18.55,0,0,1-1.42-7.13,18,18,0,0,1,5.39-13,17,17,0,0,1,5.82-3.9,17.46,17.46,0,0,1,7.12-1.43,17.78,17.78,0,0,1,7.16,1.43c.25.09.54.24.79.34v6.77a12.61,12.61,0,1,0,.94,18.67,14.72,14.72,0,0,0,1.23-1.39Z" transform="translate(-72.96 -255.19)"/><path class="cls-5" d="M337.55,353.18H327.48v31.51H321.7V353.18H311.62v-5.13h25.93Z" transform="translate(-72.96 -255.19)"/><path class="cls-5" d="M129.31,456.69h14.86v9.8h-31.1V327.07h31.1v9.8H129.31Z" transform="translate(-72.96 -255.19)"/><path class="cls-5" d="M185.13,430.73a15.63,15.63,0,0,1-7.46,13.87c-4.14,2.6-9.73,4-16.54,4H147.82v-60.2h13.31c6.65,0,11.51,1.22,14.92,3.73a12.77,12.77,0,0,1,4.13,5.19,15.84,15.84,0,0,1-3.48,17.36,23.17,23.17,0,0,1,2.75,2.19,19.52,19.52,0,0,1,4.14,5.92A19.9,19.9,0,0,1,185.13,430.73Zm-27.9-33.9v18.25a35.85,35.85,0,0,0,6.16-1.95,21.36,21.36,0,0,0,7-4.22,7,7,0,0,0,2.52-5.27c0-2.92-1.06-4.06-2-4.71-2.27-1.71-6.65-2.1-9.81-2.1Zm19.47,33.9a10.1,10.1,0,0,0-3.17-7.69,14.63,14.63,0,0,0-4.62-3c-.81.33-1.62.73-2.51,1.06a56.13,56.13,0,0,1-9.17,2.76v16.22h3.9c5.1,0,9.24-.89,11.92-2.6A7.38,7.38,0,0,0,176.7,430.73Z" transform="translate(-72.96 -255.19)"/><path class="cls-5" d="M208.34,446.22a30.06,30.06,0,0,1-18.42-27.74,30.82,30.82,0,0,1,2.36-11.76,31.47,31.47,0,0,1,6.49-9.57,29.65,29.65,0,0,1,9.57-6.41A30,30,0,0,1,220,388.39a30.66,30.66,0,0,1,11.76,2.35,29.71,29.71,0,0,1,16,16,30.81,30.81,0,0,1,2.35,11.76,30.23,30.23,0,0,1-2.35,11.68,29.8,29.8,0,0,1-6.41,9.58,32,32,0,0,1-9.57,6.48A30.86,30.86,0,0,1,220,448.58,30,30,0,0,1,208.34,446.22Zm-2.92-42.34A20.57,20.57,0,1,0,220,397.8,20.58,20.58,0,0,0,205.42,403.88Z" transform="translate(-72.96 -255.19)"/><path class="cls-5" d="M273.56,446.22a30.07,30.07,0,0,1-18.41-27.74,31,31,0,0,1,2.35-11.76,31.83,31.83,0,0,1,6.49-9.57,30.11,30.11,0,0,1,21.25-8.76A30.67,30.67,0,0,1,297,390.74a29.68,29.68,0,0,1,16,16,31,31,0,0,1,2.35,11.76A30.19,30.19,0,0,1,313,430.16a29.69,29.69,0,0,1-6.41,9.58,32,32,0,0,1-9.57,6.48,30.87,30.87,0,0,1-11.77,2.36A30.06,30.06,0,0,1,273.56,446.22Zm-2.91-42.34a20.57,20.57,0,1,0,14.59-6.08A20.58,20.58,0,0,0,270.65,403.88Z" transform="translate(-72.96 -255.19)"/><path class="cls-5" d="M356.88,448.58H322.32V388.39h9.41v51.67h25.15Z" transform="translate(-72.96 -255.19)"/><path class="cls-5" d="M331.72,440V408a126.81,126.81,0,0,1-9.38,38.08v2.47h34.54V440Z" transform="translate(-72.96 -255.19)"/><path class="cls-5" d="M369.53,412.89h22v8.51h-22v18.66h26.69v8.52H360.13V388.39h36.09v8.44H369.53Z" transform="translate(-72.96 -255.19)"/><path class="cls-5" d="M436.3,435.68H414.89l-5.11,12.9H399.4l26.21-62.95,26.11,62.95h-10.3Zm-3.42-8.44-7.28-18.33-7.3,18.33Z" transform="translate(-72.96 -255.19)"/><path class="cls-5" d="M465.83,409.89v38.69h-9.4v-63L494.23,427V388.39h9.49v62.94Z" transform="translate(-72.96 -255.19)"/><path class="cls-5" d="M510,336.87v-9.8H541V466.49H510v-9.8H524.8V336.87Z" transform="translate(-72.96 -255.19)"/><path class="cls-5" d="M185.13,430.73a15.63,15.63,0,0,1-7.46,13.87c-4.14,2.6-9.73,4-16.54,4H147.82v-60.2h13.31c6.65,0,11.51,1.22,14.92,3.73a12.77,12.77,0,0,1,4.13,5.19,15.84,15.84,0,0,1-3.48,17.36,23.17,23.17,0,0,1,2.75,2.19,19.52,19.52,0,0,1,4.14,5.92A19.9,19.9,0,0,1,185.13,430.73Zm-27.9-33.9v18.25a35.85,35.85,0,0,0,6.16-1.95,21.36,21.36,0,0,0,7-4.22,7,7,0,0,0,2.52-5.27c0-2.92-1.06-4.06-2-4.71-2.27-1.71-6.65-2.1-9.81-2.1Zm19.47,33.9a10.1,10.1,0,0,0-3.17-7.69,14.63,14.63,0,0,0-4.62-3c-.81.33-1.62.73-2.51,1.06a56.13,56.13,0,0,1-9.17,2.76v16.22h3.9c5.1,0,9.24-.89,11.92-2.6A7.38,7.38,0,0,0,176.7,430.73Z" transform="translate(-72.96 -255.19)"/><path class="cls-5" d="M208.34,446.22a30.06,30.06,0,0,1-18.42-27.74,30.82,30.82,0,0,1,2.36-11.76,31.47,31.47,0,0,1,6.49-9.57,29.65,29.65,0,0,1,9.57-6.41A30,30,0,0,1,220,388.39a30.66,30.66,0,0,1,11.76,2.35,29.71,29.71,0,0,1,16,16,30.81,30.81,0,0,1,2.35,11.76,30.23,30.23,0,0,1-2.35,11.68,29.8,29.8,0,0,1-6.41,9.58,32,32,0,0,1-9.57,6.48A30.86,30.86,0,0,1,220,448.58,30,30,0,0,1,208.34,446.22Zm-2.92-42.34A20.57,20.57,0,1,0,220,397.8,20.58,20.58,0,0,0,205.42,403.88Z" transform="translate(-72.96 -255.19)"/><path class="cls-5" d="M273.57,446.22a30.09,30.09,0,0,1-18.42-27.74,30.82,30.82,0,0,1,2.36-11.76,31.83,31.83,0,0,1,6.49-9.57,30.11,30.11,0,0,1,21.25-8.76A30.62,30.62,0,0,1,297,390.74a29.68,29.68,0,0,1,16,16,30.62,30.62,0,0,1,2.35,11.76,30.16,30.16,0,0,1-8.76,21.26,31.8,31.8,0,0,1-9.57,6.48,30.82,30.82,0,0,1-11.76,2.36A30.06,30.06,0,0,1,273.57,446.22Zm-2.92-42.34a20.57,20.57,0,1,0,14.6-6.08A20.57,20.57,0,0,0,270.65,403.88Z" transform="translate(-72.96 -255.19)"/><path class="cls-5" d="M369.54,412.89h22v8.51h-22v18.66h26.69v8.52h-36.1V388.39h36.09v8.44H369.53Z" transform="translate(-72.96 -255.19)"/><path class="cls-5" d="M436.31,435.68H414.89l-5.11,12.9H399.4l26.21-62.95,26.12,62.95h-10.3Zm-3.42-8.44-7.3-18.33-7.3,18.33Z" transform="translate(-72.96 -255.19)"/><path class="cls-5" d="M465.84,409.89v38.69h-9.4v-63L494.23,427V388.39h9.49v62.94Z" transform="translate(-72.96 -255.19)"/><path class="cls-5" d="M247.87,348.05v24.19a6.62,6.62,0,0,1-1.61,4.64c.33,2.1.6,4.22.83,6.36a12,12,0,0,0,2.41-1.51,11.89,11.89,0,0,0,4.14-9.49V348.05Z" transform="translate(-72.96 -255.19)"/></g></svg>